PathFileType	4	(x/y/z)	S09_PSF_T08
DataRate	CameraRate	NumFrames	NumMarkers	Units	OrigDataRate	OrigDataStartFrame	OrigNumFrames
240	240	4	51	mm	240	1	473
Frame#	Time	Sternum			R.Acromium			L.Acromium			Top.Head			R.ASIS			L.ASIS			R.PSIS			L.PSIS			R.Great.Tro			L.Great.Tro			R.Iliac.Crest			L.Iliac.Crest			V.Sacral			R.Thigh.Upper.Post			R.Thigh.Lower.Ant			R.Thigh.Lower.Post			R.Thigh.Upper.Ant			R.Knee.Lat			R.Knee.Med			R.Shank.Upper.Post			R.Shank.Lower.Ant			R.Shank.Lower.Post			R.Shank.Upper.Ant			R.Ankle.Lat			R.Ankle.Med			R.Heel.Upper			R.Heel.Med			R.Heel.Lat			R.Toe.Lat			R.Toe.Med			R.Toe.Tip			L.Thigh.Upper.Post			L.Thigh.Lower.Ant			L.Thigh.Lower.Post			L.Thigh.Upper.Ant			L.Knee.Lat			L.Knee.Med			L.Shank.Upper.Post			L.Shank.Lower.Ant			L.Shank.Lower.Post			L.Shank.Upper.Ant			L.Ankle.Lat			L.Ankle.Med			L.Heel.Upper			L.Heel.Med			L.Heel.Lat			L.Toe.Lat			L.Toe.Med			L.Toe.Tip			Cervical.Spine			Back			
		X1	Y1	Z1	X2	Y2	Z2	X3	Y3	Z3	X4	Y4	Z4	X5	Y5	Z5	X6	Y6	Z6	X7	Y7	Z7	X8	Y8	Z8	X9	Y9	Z9	X10	Y10	Z10	X11	Y11	Z11	X12	Y12	Z12	X13	Y13	Z13	X14	Y14	Z14	X15	Y15	Z15	X16	Y16	Z16	X17	Y17	Z17	X18	Y18	Z18	X19	Y19	Z19	X20	Y20	Z20	X21	Y21	Z21	X22	Y22	Z22	X23	Y23	Z23	X24	Y24	Z24	X25	Y25	Z25	X26	Y26	Z26	X27	Y27	Z27	X28	Y28	Z28	X29	Y29	Z29	X30	Y30	Z30	X31	Y31	Z31	X32	Y32	Z32	X33	Y33	Z33	X34	Y34	Z34	X35	Y35	Z35	X36	Y36	Z36	X37	Y37	Z37	X38	Y38	Z38	X39	Y39	Z39	X40	Y40	Z40	X41	Y41	Z41	X42	Y42	Z42	X43	Y43	Z43	X44	Y44	Z44	X45	Y45	Z45	X46	Y46	Z46	X47	Y47	Z47	X48	Y48	Z48	X49	Y49	Z49	X50	Y50	Z50	X51	Y51	Z51	

1	0	NaN	NaN	NaN	-1713.8	1423.6	517.82	-1733.2	1415	203.35	-1706	1724.7	350.22	NaN	NaN	NaN	NaN	NaN	NaN	-1856.6	1035.6	391.79	-1843.6	1027.7	303.13	-1733.1	927.49	554.44	-1684.1	915.45	166.15	-1738.6	1092.8	524.33	-1732.4	1096.8	197.95	-1868.2	995.95	343.52	NaN	NaN	NaN	NaN	NaN	NaN	-1828.5	599.96	485.17	NaN	NaN	NaN	-1810.3	506.52	461.51	NaN	NaN	NaN	NaN	NaN	NaN	-1898.6	287.7	444.62	-1973.4	299.05	443.06	-1888.6	362.55	461.8	NaN	NaN	NaN	-1986.9	125.08	328.01	-2085.5	104.99	364.53	-2077.5	70.004	338.23	NaN	NaN	NaN	-1918.3	59.418	454.59	-1879.7	46.07	353.58	-1831.3	53.694	401.5	-1662.5	649.99	210.39	-1568.8	588.65	202.67	-1621.2	572.39	229.35	-1606.7	664.58	180.04	-1540.4	511.96	219.68	-1524.7	526.34	354.9	-1527.2	372.29	213.49	-1429.3	319.06	218.26	-1492.5	302.41	218.24	-1464.2	388.52	213.48	-1373.9	127.4	238.33	-1351.2	142.59	330.81	-1415.7	63.25	298.9	-1384	52.717	331.81	-1395	34.586	272.98	-1251	115.42	200.85	-1218.1	155.61	305.13	-1188.8	188.3	239.13	-1796.7	1470.6	375.29	-1846.4	1202.2	364.98
2	0.0041667	NaN	NaN	NaN	-1709.1	1422.8	517.38	-1728.5	1414.4	202.95	-1701.6	1724	350.03	NaN	NaN	NaN	NaN	NaN	NaN	-1851.6	1035	391.41	-1838.5	1027	302.78	-1728.5	926.69	553.99	-1679.4	915.19	165.78	-1734.2	1092.2	524.07	-1727.5	1096.3	197.67	-1863.1	995.34	343.08	NaN	NaN	NaN	NaN	NaN	NaN	-1824.2	599.27	484.55	NaN	NaN	NaN	-1806.1	505.78	461.01	NaN	NaN	NaN	NaN	NaN	NaN	-1896.1	287.71	444.33	-1971.1	299.76	442.77	-1883.5	361.34	461.18	NaN	NaN	NaN	-1986	125.86	327.95	-2084.8	106.4	364.53	-2077.1	71.421	338.17	NaN	NaN	NaN	-1917.1	60.464	454.35	-1879.5	46.074	353.67	-1831.1	53.499	401.6	-1656.5	649.49	210.56	-1562.1	588.18	203.53	-1615	571.98	229.75	-1600.1	663.99	180.59	-1534.2	511.44	220.41	-1518.8	526.52	355.51	-1522.9	371.66	214.19	-1425.8	317.33	219.2	-1489.2	301.44	219.06	-1459.8	387.17	214.41	-1372.7	125.63	239.27	-1350	140.36	331.59	-1415.1	62.294	299.34	-1383.9	51.39	332.31	-1394.8	33.668	273.41	-1249.4	112.63	202.32	-1216.9	152.24	306.81	-1187	184.91	241.13	-1792	1469.9	374.93	-1841.5	1201.4	364.63
3	0.0083333	NaN	NaN	NaN	-1704.2	1422	516.92	-1723.6	1413.8	202.53	-1696.9	1723.3	349.84	NaN	NaN	NaN	NaN	NaN	NaN	-1846.4	1034.3	391	-1833.1	1026.4	302.39	-1723.6	925.86	553.51	-1674.6	914.93	165.38	-1729.8	1091.5	523.82	-1722.4	1095.8	197.36	-1857.8	994.7	342.61	NaN	NaN	NaN	NaN	NaN	NaN	-1819.7	598.56	483.91	NaN	NaN	NaN	-1801.7	505.01	460.49	NaN	NaN	NaN	NaN	NaN	NaN	-1893.6	287.74	444.04	-1968.6	300.51	442.48	-1878.2	360.18	460.54	NaN	NaN	NaN	-1985	126.71	327.91	-2084.1	107.91	364.52	-2076.6	72.939	338.11	NaN	NaN	NaN	-1915.9	61.467	454.14	-1879.3	46.082	353.77	-1830.8	53.3	401.7	-1650.3	648.96	210.73	-1555.2	587.68	204.41	-1608.7	571.55	230.15	-1593.3	663.37	181.15	-1527.8	510.91	221.16	-1512.7	526.68	356.1	-1518.4	371.02	214.89	-1422.1	315.57	220.18	-1485.7	300.46	219.9	-1455.3	385.79	215.37	-1371.4	123.85	240.24	-1348.7	138.06	332.41	-1414.4	61.372	299.79	-1383.7	50.075	332.82	-1394.5	32.801	273.85	-1247.7	109.77	203.83	-1215.6	148.73	308.53	-1185.1	181.39	243.19	-1787.2	1469.1	374.54	-1836.4	1200.5	364.25
4	0.0125	NaN	NaN	NaN	-1699.2	1421.1	516.45	-1718.6	1413.2	202.1	-1692.1	1722.7	349.63	NaN	NaN	NaN	NaN	NaN	NaN	-1840.9	1033.6	390.55	-1827.5	1025.7	301.97	-1718.6	925.01	553.01	-1669.5	914.66	164.95	-1725.4	1090.9	523.58	-1717.1	1095.2	197.03	-1852.3	994.06	342.1	NaN	NaN	NaN	NaN	NaN	NaN	-1815	597.83	483.23	NaN	NaN	NaN	-1797.1	504.22	459.98	NaN	NaN	NaN	NaN	NaN	NaN	-1890.9	287.77	443.74	-1966	301.31	442.18	-1872.9	359.11	459.89	NaN	NaN	NaN	-1984	127.61	327.87	-2083.3	109.53	364.52	-2076.2	74.561	338.04	NaN	NaN	NaN	-1914.8	62.402	453.97	-1879.1	46.095	353.87	-1830.6	53.099	401.8	-1643.9	648.43	210.89	-1548.1	587.13	205.3	-1602.2	571.09	230.55	-1586.3	662.75	181.71	-1521.3	510.37	221.91	-1506.5	526.8	356.69	-1513.8	370.37	215.57	-1418.3	313.81	221.19	-1482.1	299.47	220.72	-1450.6	384.4	216.35	-1370	122.08	241.22	-1347.3	135.73	333.26	-1413.5	60.51	300.26	-1383.4	48.799	333.34	-1394.1	32.011	274.28	-1245.9	106.87	205.38	-1214.2	145.09	310.27	-1183	177.75	245.28	-1782.2	1468.3	374.13	-1831.1	1199.6	363.85
